<?xml version="1.0" encoding="UTF-8" standalone="no"?>
<svg
   width="58.058647"
   height="58.058647"
   viewBox="0 0 58.058647 58.058647"
   fill="none"
   version="1.1"
   id="svg14"
   sodipodi:docname="favicon.svg"
   inkscape:version="1.1 (c68e22c387, 2021-05-23)"
   xmlns:inkscape="http://www.inkscape.org/namespaces/inkscape"
   xmlns:sodipodi="http://sodipodi.sourceforge.net/DTD/sodipodi-0.dtd"
   xmlns="http://www.w3.org/2000/svg"
   xmlns:svg="http://www.w3.org/2000/svg"
   xmlns:rdf="http://www.w3.org/1999/02/22-rdf-syntax-ns#"
   xmlns:cc="http://creativecommons.org/ns#"
   xmlns:dc="http://purl.org/dc/elements/1.1/">
  <metadata
     id="metadata20">
    <rdf:RDF>
      <cc:Work
         rdf:about="">
        <dc:format>image/svg+xml</dc:format>
        <dc:type
           rdf:resource="http://purl.org/dc/dcmitype/StillImage" />
      </cc:Work>
    </rdf:RDF>
  </metadata>
  <defs
     id="defs18">
    <inkscape:path-effect
       effect="bspline"
       id="path-effect136"
       is_visible="true"
       lpeversion="1"
       weight="33.333333"
       steps="2"
       helper_size="0"
       apply_no_weight="true"
       apply_with_weight="true"
       only_selected="false" />
    <inkscape:path-effect
       effect="bspline"
       id="path-effect134"
       is_visible="true"
       lpeversion="1"
       weight="33.333333"
       steps="2"
       helper_size="0"
       apply_no_weight="true"
       apply_with_weight="true"
       only_selected="false" />
    <inkscape:path-effect
       effect="bspline"
       id="path-effect77"
       is_visible="true"
       lpeversion="1"
       weight="33.333333"
       steps="2"
       helper_size="0"
       apply_no_weight="true"
       apply_with_weight="true"
       only_selected="false" />
    <inkscape:path-effect
       effect="bspline"
       id="path-effect69"
       is_visible="true"
       lpeversion="1"
       weight="33.333333"
       steps="2"
       helper_size="0"
       apply_no_weight="true"
       apply_with_weight="true"
       only_selected="false" />
  </defs>
  <sodipodi:namedview
     pagecolor="#ffffff"
     bordercolor="#666666"
     borderopacity="1"
     objecttolerance="10"
     gridtolerance="10"
     guidetolerance="10"
     inkscape:pageopacity="0"
     inkscape:pageshadow="2"
     inkscape:window-width="1366"
     inkscape:window-height="699"
     id="namedview16"
     showgrid="false"
     inkscape:zoom="7.6119882"
     inkscape:cx="30.281182"
     inkscape:cy="25.223371"
     inkscape:window-x="0"
     inkscape:window-y="0"
     inkscape:window-maximized="1"
     inkscape:current-layer="svg14"
     inkscape:document-rotation="0"
     inkscape:pagecheckerboard="0" />
  <rect
     style="fill:#2f83e8;fill-opacity:1;stroke-width:3.77953"
     id="rect797"
     width="58.058647"
     height="58.058647"
     x="0"
     y="0"
     ry="9.3213062" />
  <path
     d="m 24.818908,42.749166 c -1.41082,0 -2.01384,0.713525 -2.01384,1.918601 v 4.23259 c 0,0.190516 -0.0953,0.301044 -0.31721,0.301044 h -1.68044 c -0.22204,0 -0.33257,-0.110532 -0.33257,-0.301044 v -7.736382 c 0,-0.190521 0.11055,-0.301945 0.33257,-0.301945 h 1.41081 c 0.20667,0 0.31722,0.111427 0.31722,0.301945 v 1.248208 c 0.26962,-1.029843 1.04695,-1.553745 2.42636,-1.553745 h 0.57065 c 0.20573,0 0.31628,0.111427 0.31628,0.301935 v 1.287758 c 0,0.20579 -0.11055,0.301035 -0.31628,0.301035 z"
     fill="white"
     id="path4-6"
     style="fill:#ffffff;stroke-width:0.1181" />
  <path
     d="m 18.750818,46.934136 c 0,1.569924 -0.69737,2.267265 -2.36164,2.267265 h -4.12203 c -1.64903,0 -2.3625801,-0.697341 -2.3625801,-2.267265 V 43.13109 c 0,-1.569024 0.7135501,-2.267267 2.3625801,-2.267267 h 4.12203 c 1.66427,0 2.36164,0.698243 2.36164,2.267267 z m -2.33022,-3.201848 c 0,-0.824963 -0.15813,-0.983122 -1.1412,-0.983122 h -1.88723 c -0.9983,0 -1.15738,0.158159 -1.15738,0.983122 v 2.599765 c 0,0.824053 0.15908,0.983108 1.15738,0.983108 h 1.88723 c 0.98307,0 1.1412,-0.159055 1.1412,-0.983108 z"
     fill="white"
     id="path6-7"
     style="fill:#ffffff;stroke-width:0.1181" />
  <path
     d="m 3.8545479,42.749166 h -0.79351 c -0.20667,0 -0.31721,-0.09525 -0.31721,-0.301035 v -1.284156 c 0,-0.190521 0.11054,-0.301945 0.31721,-0.301945 h 0.79269 v -1.029843 c 6.4e-4,-1.569924 0.82492,-2.362527 2.45777,-2.362527 h 1.95006 c 0.22191,0 0.31722,0.111427 0.31722,0.301048 v 1.284156 c 0,0.206687 -0.0953,0.301038 -0.31722,0.301038 h -1.02995 c -0.87252,0 -1.04683,0.190521 -1.04683,0.904032 v 0.602096 h 2.07678 c 0.22191,0 0.31722,0.111427 0.31722,0.301945 v 1.284156 c 0,0.20579 -0.0953,0.301035 -0.31722,0.301035 h -2.07678 v 6.151191 c 0,0.190516 -0.11054,0.301044 -0.33257,0.301044 h -1.68044 c -0.22191,0 -0.31722,-0.110532 -0.31722,-0.301044 z"
     fill="white"
     id="path8-5"
     style="fill:#ffffff;stroke-width:0.1181" />
  <path
     d="m 32.998138,52.435612 h -3.45619 c -1.55289,0 -2.21874,-0.602072 -2.21874,-2.092962 v -0.158136 c -0.005,-0.04251 3.1e-4,-0.08563 0.0148,-0.125896 0.0143,-0.04038 0.0375,-0.07701 0.068,-0.107109 0.0304,-0.03012 0.0671,-0.05303 0.10764,-0.06697 0.0405,-0.01392 0.0835,-0.01865 0.12602,-0.0137 h 1.61761 c 0.22191,0 0.33245,0.111488 0.33245,0.317216 v 0.07912 c 0,0.317216 0.17525,0.443937 0.52389,0.443937 h 1.99765 c 0.95083,0 1.18891,-0.237259 1.18891,-1.046009 v -2.500921 c -0.36481,0.713524 -1.06219,1.07837 -2.15673,1.07837 h -1.61749 c -1.64903,0 -2.37877,-0.697345 -2.37877,-2.267266 V 41.16397 c -0.002,-0.04154 0.005,-0.08307 0.0202,-0.121714 0.0154,-0.03865 0.0389,-0.0735 0.0691,-0.102199 0.0301,-0.02866 0.066,-0.0505 0.10546,-0.06397 0.0393,-0.01347 0.0812,-0.01826 0.12247,-0.01409 h 1.69673 c 0.20573,0 0.31722,0.111427 0.31722,0.301945 v 4.213718 c 0,0.824052 0.17432,0.983109 1.15737,0.983109 h 1.20509 c 1.04601,0 1.45853,-0.428644 1.45853,-1.300325 v -3.896499 c 0,-0.19052 0.11055,-0.301945 0.31723,-0.301945 h 1.69745 c 0.0406,-0.0039 0.0816,0.0013 0.11997,0.015 0.0383,0.0138 0.0732,0.03592 0.10196,0.0648 0.0288,0.02889 0.0509,0.06377 0.0645,0.102175 0.0137,0.0384 0.0187,0.07938 0.0148,0.119954 v 8.750915 c -9.8e-4,1.663438 -0.88883,2.520722 -2.61686,2.520722 z"
     fill="white"
     id="path12-5"
     style="fill:#ffffff;stroke-width:0.1181" />
  <path
     d="m 45.677558,46.934136 c 0,1.569924 -0.69738,2.267265 -2.36164,2.267265 h -4.12204 c -1.64902,0 -2.36258,-0.697341 -2.36258,-2.267265 V 43.13109 c 0,-1.569024 0.71356,-2.267267 2.36258,-2.267267 h 4.12204 c 1.66426,0 2.36164,0.698243 2.36164,2.267267 z m -2.33022,-3.201848 c 0,-0.824963 -0.15813,-0.983122 -1.1412,-0.983122 h -1.88724 c -0.99829,0 -1.15737,0.158159 -1.15737,0.983122 v 2.599765 c 0,0.824053 0.15908,0.983108 1.15737,0.983108 h 1.88724 c 0.98307,0 1.1412,-0.159055 1.1412,-0.983108 z"
     fill="white"
     id="path6-7-6"
     style="fill:#ffffff;stroke-width:0.1181" />
  <path
     style="fill:#ffffff;fill-opacity:1;stroke:none;stroke-width:0.124752px;stroke-linecap:butt;stroke-linejoin:miter;stroke-opacity:1"
     d="m 48.930608,40.867552 c -0.32559,-4.16e-4 -0.97688,-0.0013 -1.314137,-0.0022 -0.337257,-9.63e-4 -0.360549,-0.0021 -0.387537,0.0032 -0.02699,0.0052 -0.05768,0.01684 -0.08616,0.03528 -0.02848,0.01843 -0.05427,0.04319 -0.07728,0.07424 -0.02301,0.03105 -0.04146,0.06595 -0.05354,0.0977 -0.01209,0.03175 -0.01744,0.05967 -0.01975,0.102605 -0.0023,0.04294 -0.0017,0.100981 -0.002,1.019984 -3.34e-4,0.919003 -0.0017,2.698684 -0.0012,3.680463 5.01e-4,0.981779 0.0028,1.165199 0.01358,1.343665 0.01074,0.178466 0.02987,0.351869 0.0622,0.514889 0.03233,0.16302 0.0774,0.314199 0.150016,0.460543 0.07261,0.146343 0.170154,0.282716 0.261665,0.385537 0.09151,0.102821 0.175956,0.170786 0.277062,0.235024 0.101107,0.06424 0.219556,0.125118 0.330972,0.174292 0.111417,0.04917 0.218876,0.08802 0.382024,0.121693 0.163148,0.03368 0.38273,0.06249 0.596462,0.07464 0.213733,0.01215 0.421623,0.0076 1.205464,0.0098 0.783841,0.0021 2.143602,0.01089 3.005884,-0.0037 0.862283,-0.01455 1.227104,-0.0524 1.528297,-0.191977 0.301194,-0.13958 0.5389,-0.380928 0.688898,-0.614545 0.149998,-0.233617 0.212358,-0.459694 0.260671,-0.635381 0.04831,-0.175687 0.08263,-0.301181 0.09133,-1.38393 0.0087,-1.08275 -0.0082,-3.124279 -0.01605,-4.152337 -0.0078,-1.028058 -0.0065,-1.045882 -0.0087,-1.070967 -0.0022,-0.02509 -0.0081,-0.05823 -0.02217,-0.09385 -0.01407,-0.03562 -0.03643,-0.07411 -0.06388,-0.104101 -0.02745,-0.02999 -0.06014,-0.05146 -0.09261,-0.06409 -0.03247,-0.01263 -0.06487,-0.01646 -0.102422,-0.01895 -0.03756,-0.0025 -0.08036,-0.0036 -0.401192,-0.0028 -0.320829,8.49e-4 -0.919729,0.0037 -1.2349,0.0063 -0.31517,0.0026 -0.346779,0.005 -0.376388,0.01039 -0.02961,0.0054 -0.05741,0.01395 -0.08084,0.02596 -0.02343,0.01201 -0.04245,0.02745 -0.0606,0.04758 -0.01814,0.02013 -0.03529,0.04481 -0.04743,0.07131 -0.01214,0.0265 -0.01924,0.05471 -0.02479,0.0844 -0.0055,0.02969 -0.0097,0.0617 -0.01086,0.146843 -0.0012,0.08515 4.75e-4,0.223805 9.74e-4,0.943123 4.99e-4,0.719318 -1.67e-4,2.019254 -0.0015,2.715266 -0.0013,0.696011 -0.0033,0.788111 -0.0078,0.883107 -0.0045,0.095 -0.01145,0.192877 -0.03438,0.302042 -0.02292,0.109164 -0.06178,0.229625 -0.111217,0.33797 -0.04944,0.108344 -0.10943,0.204541 -0.194694,0.290226 -0.08526,0.08569 -0.195852,0.160896 -0.31201,0.211726 -0.116158,0.05083 -0.237967,0.07729 -0.348404,0.09515 -0.110436,0.01786 -0.209485,0.0271 -0.513913,0.03199 -0.304428,0.0049 -0.814227,0.0054 -1.132633,8e-5 -0.318406,-0.0053 -0.445411,-0.01658 -0.536066,-0.03354 -0.09066,-0.01696 -0.144943,-0.03968 -0.202351,-0.06772 -0.05741,-0.02804 -0.117938,-0.0614 -0.170142,-0.113584 -0.05221,-0.05219 -0.09597,-0.123195 -0.129166,-0.216915 -0.0332,-0.09372 -0.05599,-0.211411 -0.06974,-0.323528 -0.01375,-0.112117 -0.01861,-0.220621 -0.01921,-1.029622 -6.03e-4,-0.809 0.003,-2.319122 0.005,-3.118015 0.0019,-0.798893 0.0021,-0.886801 4.39e-4,-0.944832 -0.0017,-0.05803 -0.0053,-0.08618 -0.01127,-0.112952 -0.0059,-0.02677 -0.01425,-0.05213 -0.0271,-0.07803 -0.01285,-0.02589 -0.0303,-0.05231 -0.05096,-0.07455 -0.02065,-0.02225 -0.0446,-0.04027 -0.0658,-0.05236 -0.02121,-0.01208 -0.03972,-0.01823 -0.05518,-0.02195 -0.01545,-0.0037 -0.02707,-0.0049 -0.03612,-0.0061 -0.009,-0.0013 -0.01559,-0.0027 -0.01882,-0.0034 -0.0032,-7.14e-4 -0.0024,-6.32e-4 -0.32802,-0.001 z"
     id="path67"
     sodipodi:nodetypes="ccccccccccccccccccccccccccccccccccccccccccccccccccccccccccccccc"
     inkscape:original-d="m 49.256198,40.867969 c -0.65118,-6.48e-4 -1.30247,-0.0016 -1.95389,-0.0025 -0.0231,-9.73e-4 -0.0464,-0.0019 -0.0698,-0.0033 -0.0305,0.01173 -0.0612,0.02332 -0.0919,0.03478 -0.0262,0.02539 -0.052,0.05013 -0.0789,0.07575 -0.0191,0.03644 -0.0375,0.07136 -0.0565,0.106892 -0.005,0.02795 -0.0109,0.05576 -0.016,0.08348 9.8e-4,0.05819 0.002,0.116229 0.002,0.174159 -9.7e-4,1.780084 -0.002,3.559765 -0.004,5.339746 0.002,0.183581 0.005,0.366993 0.007,0.550339 0.0192,0.173584 0.0383,0.346991 0.0574,0.520336 0.0456,0.152676 0.0907,0.303849 0.13645,0.457617 0.0994,0.138933 0.19694,0.275307 0.29526,0.412803 0.0847,0.06814 0.16912,0.136137 0.25351,0.204034 0.11781,0.06061 0.23626,0.121489 0.35302,0.181445 0.10607,0.03842 0.21353,0.07726 0.32012,0.115709 0.21972,0.02892 0.4393,0.05775 0.65878,0.08645 0.208,-0.0044 0.41589,-0.0089 0.62366,-0.01351 1.35991,0.0088 2.71967,0.01765 4.07931,0.02629 0.36494,-0.03772 0.72976,-0.07558 1.09445,-0.113543 0.2378,-0.241211 0.47551,-0.482555 0.71307,-0.723995 0.0624,-0.225889 0.12482,-0.451949 0.18703,-0.678039 0.0343,-0.125316 0.0687,-0.250787 0.10292,-0.376363 -0.0168,-2.039955 -0.0337,-4.081484 -0.0508,-6.120073 10e-4,-0.01755 0.002,-0.0354 0.004,-0.05305 -0.006,-0.03243 -0.0121,-0.06554 -0.0175,-0.09847 -0.0223,-0.03838 -0.0446,-0.07691 -0.0671,-0.115528 -0.0325,-0.02127 -0.0652,-0.04272 -0.0978,-0.06425 -0.0323,-0.0037 -0.0647,-0.0075 -0.0972,-0.01149 -0.0426,-9.71e-4 -0.0854,-0.0023 -0.12826,-0.0034 -0.5988,0.0029 -1.1977,0.0057 -1.79673,0.0085 -0.0313,0.0025 -0.0629,0.005 -0.0945,0.0071 -0.0276,0.0086 -0.0554,0.01713 -0.0832,0.02552 -0.019,0.01561 -0.038,0.03109 -0.0572,0.04644 -0.0171,0.02484 -0.0342,0.04955 -0.0515,0.07413 -0.007,0.02834 -0.0142,0.05653 -0.0213,0.0846 -0.004,0.03131 -0.008,0.06333 -0.0122,0.0948 0.002,0.138799 0.004,0.277454 0.005,0.415978 -6.4e-4,1.30012 -10e-4,2.600056 -0.002,3.899881 -10e-4,0.09222 -0.004,0.184298 -0.006,0.276249 -0.007,0.09804 -0.0138,0.195932 -0.0209,0.293693 -0.0387,0.120619 -0.0775,0.241098 -0.11659,0.361449 -0.0599,0.09634 -0.11985,0.192563 -0.18001,0.288647 -0.11043,0.07534 -0.22103,0.150535 -0.33172,0.225604 -0.12169,0.0266 -0.2435,0.05306 -0.36542,0.07939 -0.0989,0.01016 -0.19802,0.01863 -0.29719,0.02772 -0.5097,0.0019 -1.0195,0.0013 -1.52942,0.0016 -0.1269,-0.01113 -0.25391,-0.02231 -0.38105,-0.0337 -0.0542,-0.02257 -0.10849,-0.04529 -0.1628,-0.06815 -0.0605,-0.03325 -0.12102,-0.06663 -0.1817,-0.100143 -0.0437,-0.07091 -0.0874,-0.141958 -0.13135,-0.213135 -0.0225,-0.116228 -0.0452,-0.233936 -0.068,-0.351104 -0.005,-0.107037 -0.01,-0.215535 -0.0145,-0.323498 0.004,-1.510052 0.007,-3.020176 0.0109,-4.530461 3.1e-4,-0.0875 3.3e-4,-0.175408 6.5e-4,-0.263311 -0.004,-0.02811 -0.007,-0.05634 -0.0109,-0.0847 -0.008,-0.02523 -0.0164,-0.05056 -0.0249,-0.07604 -0.0173,-0.02629 -0.0347,-0.05274 -0.0524,-0.07932 -0.0237,-0.01785 -0.0477,-0.0358 -0.0716,-0.05391 -0.0185,-0.006 -0.037,-0.0122 -0.0558,-0.01853 -0.0121,-9.71e-4 -0.0237,-0.0023 -0.0358,-0.0035 -0.006,-0.0013 -0.0126,-0.0025 -0.019,-0.0042 z"
     inkscape:path-effect="#path-effect136" />
  <path
     style="fill:#ffffff;stroke:none;stroke-width:0.65033px;stroke-linecap:butt;stroke-linejoin:miter;stroke-opacity:1"
     d="m 37.091581,4.2332621 c -3.991677,-0.035517 -11.974427,-0.1065454 -16.36932,-0.00163 -4.394893,0.1049121 -5.201724,0.3854638 -5.896739,0.7514604 -0.695015,0.3659965 -1.278195,0.8171191 -1.668686,1.563992 -0.390491,0.7468729 -0.588849,1.7892798 -0.656332,5.0311578 -0.06748,3.241877 -0.0042,8.683122 0.03058,12.074067 0.03482,3.390946 0.04122,4.73142 0.427238,5.707641 0.386019,0.976222 1.151673,1.5888 2.048167,1.926518 0.896493,0.337718 1.924233,0.400512 5.529614,0.450197 3.605381,0.04968 9.788131,0.08622 13.629357,0.305135 3.841227,0.218913 5.340537,0.620308 6.608358,1.202335 1.267821,0.582027 2.303757,1.344606 3.012237,2.020639 0.70848,0.676033 1.08916,1.265091 1.348643,1.678281 0.259483,0.41319 0.397748,0.650466 0.49298,0.808802 0.09523,0.158337 0.147468,0.237814 0.174882,-0.09225 0.02741,-0.330063 0.03008,-1.070183 0.01447,-4.992135 -0.01562,-3.921951 -0.04957,-11.035711 -0.0672,-15.687023 -0.01763,-4.651312 -0.01896,-6.845064 -0.06874,-8.1554107 C 45.631307,7.5146894 45.532985,7.088015 45.395689,6.6841063 45.258392,6.2801976 45.078097,5.8905826 44.765636,5.5613407 44.453174,5.2320989 44.006879,4.959334 43.589636,4.7769037 43.172393,4.5944733 42.784546,4.5024019 42.443779,4.4422597 c -0.340767,-0.060142 -0.634161,-0.08839 -0.853173,-0.1119976 -0.219013,-0.023607 -0.363793,-0.042577 -0.435911,-0.052026 -0.07212,-0.00945 -0.07144,-0.00946 -4.063114,-0.044974 z"
     id="path75"
     inkscape:original-d="m 41.083258,4.268779 c -7.98336,-0.07036 -15.96611,-0.141416 -23.94821,-0.213085 -0.80755,0.28122 -1.61438,0.561774 -2.42063,0.841703 -0.58383,0.451794 -1.16701,0.902916 -1.74957,1.353392 -0.19895,1.04308 -0.39736,2.085477 -0.59508,3.127247 0.0626,5.442088 0.12597,10.883331 0.18973,16.324021 0.008,1.341187 0.0115,2.681675 0.0192,4.021544 0.76508,0.61327 1.53073,1.225853 2.29707,1.837821 1.02717,0.06345 2.05491,0.126246 3.08335,0.188389 6.18236,0.03726 12.36511,0.07374 18.54867,0.109615 1.49869,0.402056 2.998,0.803452 4.49797,1.204195 1.03534,0.76327 2.07127,1.525857 3.10788,2.287791 0.38024,0.589815 0.76082,1.178938 1.1422,1.767424 0.1375,0.237896 0.27577,0.475169 0.41476,0.711767 0.0515,0.08012 0.1037,0.159621 0.15671,0.238433 0.002,-0.739496 0.004,-1.479619 0.008,-2.220409 -0.0346,-7.103105 -0.0687,-14.216864 -0.10178,-21.326287 -0.002,-2.193205 -0.004,-4.386956 -0.004,-6.581417 -0.0991,-0.426031 -0.19742,-0.852706 -0.29497,-1.280035 -0.17898,-0.379388 -0.35719,-0.769968 -0.5349,-1.155909 -0.44695,-0.272117 -0.89324,-0.54489 -1.33892,-0.818316 -0.38853,-0.09141 -0.77637,-0.183511 -1.16359,-0.276226 -0.2942,-0.02765 -0.5876,-0.05584 -0.88045,-0.08477 -0.14518,-0.01844 -0.28998,-0.03726 -0.43412,-0.05688 z"
     inkscape:path-effect="#path-effect134" />
</svg>
